<svg viewBox="0 0 140 140" xmlns="http://www.w3.org/2000/svg" xmlns:xlink="http://www.w3.org/1999/xlink"><mask id="a" fill="#fff"><path d="m130.028658 16.4121418c5.790846 4.525448 9.588878 11.1221286 10.601522 18.3890528l.060847.4647429 9.015298 73.4487715c1.88646 15.355161-8.90395 29.346053-24.169531 31.473497l-.463955.060825-74.2560346 9.12102c-7.4497795.9149-14.9578316-1.167629-20.8719155-5.789302-5.7908738-4.525389-9.5888509-11.122115-10.6015583-18.38905l-.0608507-.464743-9.0249098-73.4487718c-.91490017-7.4497314 1.1676293-14.9578027 5.7893019-20.8718578 4.525384-5.7908456 11.1221185-9.5888774 18.389054-10.6016124l.4647437-.0608523 74.2560343-9.1210217c7.449828-.9148894 14.957899 1.1676638 20.871954 5.7893018zm-24.347197 40.3346476-.48453.0002018c-1.541789-.0211735-3.080656.1401312-4.584538.4805596-1.2240818.2925839-2.4154948.7079701-3.5561415 1.2398438-.9323722.4497174-1.8123153 1.0008904-2.6238556 1.643514-.4955761.3923673-.9649791.8164438-1.4052858 1.2694985l-.3247288.3451818v-1.9222385c-.0193428-1.1627245-.9122422-2.1131009-2.0534716-2.2204437l-.1571027-.009353h-6.2857199c-1.1719175.0197018-2.1266304.9264057-2.2222494 2.0782224l-.0075473.1515743v54.2263476c.0197018 1.171909.9264057 2.12663 2.0782224 2.22225l.1515743.007547h6.2664975c1.1719083-.019702 2.1266296-.926414 2.2222493-2.078223l.0075474-.151574v-17.6077042c.5430419.580045 1.1276716 1.1197039 1.749237 1.6146803.8049758.6314169 1.6787293 1.1698647 2.6046332 1.6050692 1.1371866.5403317 2.3295127.9560347 3.5561415 1.2398437 1.502268.351827 3.04175.519658 4.584538.499782 2.583739.046912 5.144257-.495428 7.487081-1.5858467 2.173956-1.03946 4.113302-2.5110874 5.699437-4.3250366 1.593536-1.8324892 2.852602-3.9308239 3.719532-6.1992191.912006-2.3362887 1.428415-4.8081432 1.528179-7.3141175.057667-.8265626.086501-1.8069042.086501-2.9025802 0-1.0956759-.028834-2.0567951-.086501-2.8833577-.099764-2.5059743-.616173-4.9778288-1.528179-7.3141175-.86693-2.2683952-2.125996-4.36673-3.719532-6.1992191-1.586423-1.8063372-3.526058-3.2684686-5.699437-4.2962031-2.047953-.962812-4.264417-1.5059574-6.518918-1.6013119zm-56.4793369 1.7206052c-2.4507099 1.1338132-4.635036 2.7712432-6.4106654 4.8055963-1.8018007 2.0790835-3.1767106 4.4925212-4.046312 7.1026712-.9523443 2.8067662-1.4266759 5.7535097-1.4032342 8.7173516-.040415 3.0719005.4338877 6.1288941 1.4032342 9.0441321.8641807 2.6039028 2.2398691 5.0089115 4.046312 7.0738377 1.7715927 1.9834138 3.9610607 3.5491923 6.4106654 4.5845388 2.6712099 1.1009907 5.5403238 1.6407937 8.4290158 1.5858467 2.7641501.050094 5.5167668-.369137 8.14068-1.239844 2.1039669-.7022031 4.0949735-1.7058038 5.9108834-2.9794694 1.4036378-.9579476 2.6216065-2.1628835 3.594586-3.5561412.6578573-.8732538 1.0962526-1.8917999 1.2782886-2.9698585.0604832-.5937795-.1684362-1.1803794-.6151163-1.5762356-.389928-.3769096-.8977998-.6043849-1.4347441-.6464542l-.1799363-.0071069h-6.6125004c-.5456947-.0278148-1.0914374.05389-1.6050691.2402798-.5269048.2518613-1.0261678.5578625-1.4897349.9130633-.826082.6061011-1.7490544 1.0675825-2.7295786 1.3647894-1.3965159.396106-2.8451341.5775942-4.2962031.5382267-1.2031002.0031237-2.4005106-.1651587-3.5561412-.499782-1.1029132-.3012628-2.1395956-.8065616-3.0563592-1.4897348-.8733402-.644344-1.5923343-1.4749624-2.1048512-2.4316317-.4931852-.9393892-.7621437-1.9786554-.7877542-3.0364825l-.0003636-.3178237h27.6033449c.5930009.0085444 1.1632714-.2279006 1.5762355-.6535611.3796863-.3739772.6086071-.8719161.6477637-1.3994312l.0061399-.1768043v-3.6618644c.0104509-2.7498486-.4780284-5.4788218-1.4420214-8.0541793-.9065565-2.4912595-2.2981899-4.7779833-4.094368-6.7278347-1.8044821-1.932436-3.9820323-3.4789537-6.4010541-4.5460941-2.6418381-1.1673177-5.5024558-1.7571278-8.3905711-1.7300146-2.8894512-.0410398-5.7530099.5493854-8.390571 1.7300146zm53.1913959 8.2116491.323724.0059205c2.49743-.0739485 4.936558.7629941 6.862353 2.3547422 1.87745 1.5570132 2.979469 4.1199914 3.30625 7.688954.15772 1.5437305.15128 3.0998306-.019222 4.6422059-.326781 3.5497306-1.4288 6.1127185-3.306251 7.688954-1.928005 1.5878651-4.365586 2.4242888-6.862353 2.3547422-2.504417.071834-4.941796-.815106-6.814335-2.4796877-1.8893298-1.7477377-3.0293133-4.15859-3.1813047-6.7278347-.124119-1.0428336-.1787009-2.0927795-.1633903-3.14286-.0153106-1.05009.0392713-2.1000263.1633903-3.1428599.1039162-2.6295069 1.2565673-5.1078779 3.2005271-6.8816138 1.7363676-1.4619873 3.9114574-2.2885595 6.1677716-2.3561839zm-40.4469547.6883152c1.0229961.4046312 1.9472564 1.0240822 2.7103563 1.8165154.6627398.7129198 1.1671544 1.5579839 1.4801236 2.4796876.2288425.6776468.4064189 1.3712769.531326 2.075018l.0837904.5296152h-18.674547c.1321058-.902491.3977207-1.7803004.7881177-2.6046332.4300144-.9294215 1.0297816-1.7703912 1.7684595-2.4796876.84121-.7776897 1.8186971-1.3935076 2.8833577-1.8165154 1.3053633-.5008681 2.696718-.7392833 4.094368-.7016171 1.4767597-.0502569 2.9491367.1880718 4.3346478.7016171z" fill="#fff" fill-rule="evenodd"/></mask><g fill="none" fill-rule="evenodd" transform="translate(-10 -10)"><path d="m0 0h160v160h-160z"/><g fill="#182552" fill-rule="evenodd" mask="url(#a)"><path d="m0 0h160v160h-160z"/></g></g></svg>